<svg xmlns="http://www.w3.org/2000/svg" viewBox="0 0 24 24" width="24" height="24" fill="none" stroke="#d4af37" stroke-width="1.5" stroke-linecap="round" stroke-linejoin="round">
  <!-- Laurel wreath: two curved branches meeting at top -->
  <path d="M8 20c-2-2-4-5-4-8 0-2 .5-4 1.5-5.5C6.5 5 8 3.5 10 2.5c.7-.4 1.3-.5 2-.5"/>
  <path d="M16 20c2-2 4-5 4-8 0-2-.5-4-1.5-5.5C17.5 5 16 3.5 14 2.5c-.7-.4-1.3-.5-2-.5"/>
  <!-- Leaf details left -->
  <path d="M6 14c1.5-.5 2.5-2 2.5-3.5"/>
  <path d="M7 10c1.2-.3 2-1.5 2-2.8"/>
  <path d="M9 7c.8-.3 1.5-1 1.8-2"/>
  <!-- Leaf details right -->
  <path d="M18 14c-1.5-.5-2.5-2-2.5-3.5"/>
  <path d="M17 10c-1.2-.3-2-1.5-2-2.8"/>
  <path d="M15 7c-.8-.3-1.5-1-1.8-2"/>
</svg>
