<svg xmlns="http://www.w3.org/2000/svg" viewBox="0 0 24 24" width="24" height="24" fill="none" stroke="#d4af37" stroke-width="1.5" stroke-linecap="round" stroke-linejoin="round">
  <!-- Brain outline: two hemispheres -->
  <!-- Left hemisphere -->
  <path d="M12 4C9 4 7 5 6 7c-1 1.5-1.5 3-1.5 5 0 1.5.3 3 1 4.5.5 1 1.5 2 2.5 2.5 1 .5 2.5 1 4 1"/>
  <!-- Right hemisphere -->
  <path d="M12 4c3 0 5 1 6 3 1 1.5 1.5 3 1.5 5 0 1.5-.3 3-1 4.5-.5 1-1.5 2-2.5 2.5-1 .5-2.5 1-4 1"/>
  <!-- Center divide -->
  <path d="M12 4v15"/>
  <!-- Left brain folds -->
  <path d="M5 10h7"/>
  <path d="M6 14h6"/>
  <!-- Right brain folds -->
  <path d="M12 10h7"/>
  <path d="M12 14h6"/>
</svg>
